<svg width="165" height="174" viewBox="0 0 165 174" fill="none" xmlns="http://www.w3.org/2000/svg">
<path d="M115.083 35.5979H60.8868C60.238 35.5979 59.6324 35.3167 59.2215 34.8193L51.0034 24.9575C50.3985 24.2247 49.6386 23.6352 48.7785 23.2313C47.9184 22.8274 46.9794 22.6193 46.0292 22.6218H24.2511C20.6827 22.6218 17.7631 25.5414 17.7631 29.1098V115.617C17.7631 116.352 18.1524 117.044 18.7796 117.455C19.1256 117.671 19.5365 117.779 19.9258 117.779C20.2502 117.779 20.5529 117.715 20.8557 117.563L120.339 69.9844C121.096 69.6167 121.571 68.8598 121.571 68.038V42.0859C121.571 38.5175 118.652 35.5979 115.083 35.5979Z" fill="#EDEEF1"/>
<path d="M146.918 67.9731C146.139 66.6538 144.755 65.8753 143.22 65.8753H47.0025C45.4237 65.8753 43.9747 66.7403 43.2178 68.1461L18.0227 114.579C17.655 115.249 17.6766 116.071 18.0659 116.72C18.4552 117.369 19.1689 117.779 19.9258 117.779H117.181C120.339 117.779 123.237 116.049 124.751 113.259L146.983 72.2552C147.718 70.8927 147.697 69.2923 146.896 67.9731H146.918Z" fill="#D7DAE0"/>
<path d="M73.9926 96.1527H50.2032C49.0137 96.1527 48.0405 95.1795 48.0405 93.99C48.0405 92.8005 49.0137 91.8273 50.2032 91.8273H73.9926C75.1821 91.8273 76.1553 92.8005 76.1553 93.99C76.1553 95.1795 75.1821 96.1527 73.9926 96.1527ZM82.6433 106.966H43.7152C42.5257 106.966 41.5525 105.993 41.5525 104.803C41.5525 103.614 42.5257 102.641 43.7152 102.641H82.6433C83.8328 102.641 84.806 103.614 84.806 104.803C84.806 105.993 83.8328 106.966 82.6433 106.966Z" fill="#8A94A6"/>
<path d="M1.64062 169V152.09H7.32422C12.3281 152.09 15.3047 155.207 15.3047 160.516V160.539C15.3047 165.871 12.3516 169 7.32422 169H1.64062ZM3.75 167.102H7.18359C11.0156 167.102 13.1484 164.758 13.1484 160.562V160.539C13.1484 156.32 11.0156 153.988 7.18359 153.988H3.75V167.102ZM21.1758 169.234C18.75 169.234 17.1211 167.77 17.1211 165.555V165.531C17.1211 163.457 18.7383 162.156 21.5391 161.992L25.0312 161.793V160.773C25.0312 159.285 24.0586 158.383 22.3594 158.383C20.7891 158.383 19.8047 159.133 19.5703 160.223L19.5469 160.328H17.5781L17.5898 160.199C17.7656 158.195 19.5117 156.578 22.3828 156.578C25.2656 156.578 27.0703 158.137 27.0703 160.574V169H25.0312V167.02H24.9844C24.2695 168.355 22.8047 169.234 21.1758 169.234ZM19.207 165.555C19.207 166.727 20.168 167.465 21.6328 167.465C23.5547 167.465 25.0312 166.141 25.0312 164.371V163.375L21.7734 163.574C20.1445 163.668 19.207 164.395 19.207 165.531V165.555ZM29.6602 169V156.812H31.6992V158.547H31.7461C32.4023 157.41 33.6445 156.578 35.4961 156.578C38.168 156.578 39.7148 158.312 39.7148 161.09V169H37.6758V161.453C37.6758 159.473 36.75 158.383 34.875 158.383C32.9531 158.383 31.6992 159.754 31.6992 161.828V169H29.6602ZM42.4219 169V152.09H44.4609V158.758H44.5078C45.1641 157.387 46.4883 156.578 48.3047 156.578C50.8945 156.578 52.6641 158.582 52.6641 161.535V169H50.625V161.887C50.625 159.684 49.5 158.383 47.6016 158.383C45.7148 158.383 44.4609 159.812 44.4609 161.887V169H42.4219ZM64.5 169.234C61.6289 169.234 59.8945 167.77 59.6484 165.59L59.6367 165.484H61.6758L61.6992 165.602C61.9453 166.82 62.8477 167.535 64.5117 167.535C66.1641 167.535 67.1484 166.844 67.1484 165.742V165.73C67.1484 164.852 66.6914 164.359 65.3086 164.02L63.375 163.551C61.0781 163 59.9648 161.934 59.9648 160.176V160.164C59.9648 158.066 61.8047 156.578 64.4414 156.578C67.1133 156.578 68.8125 158.137 68.9648 160.176L68.9766 160.328H67.0312L67.0195 160.246C66.8555 159.062 65.9531 158.277 64.4414 158.277C62.9648 158.277 62.0508 158.992 62.0508 160.07V160.082C62.0508 160.914 62.6016 161.488 63.9492 161.816L65.8828 162.285C68.3438 162.883 69.2344 163.855 69.2344 165.59V165.602C69.2344 167.734 67.2188 169.234 64.5 169.234ZM76.6875 155.418H75.1172L77.1211 151.902H79.2539L76.6875 155.418ZM74.918 169.234C72.4922 169.234 70.8633 167.77 70.8633 165.555V165.531C70.8633 163.457 72.4805 162.156 75.2812 161.992L78.7734 161.793V160.773C78.7734 159.285 77.8008 158.383 76.1016 158.383C74.5312 158.383 73.5469 159.133 73.3125 160.223L73.2891 160.328H71.3203L71.332 160.199C71.5078 158.195 73.2539 156.578 76.125 156.578C79.0078 156.578 80.8125 158.137 80.8125 160.574V169H78.7734V167.02H78.7266C78.0117 168.355 76.5469 169.234 74.918 169.234ZM72.9492 165.555C72.9492 166.727 73.9102 167.465 75.375 167.465C77.2969 167.465 78.7734 166.141 78.7734 164.371V163.375L75.5156 163.574C73.8867 163.668 72.9492 164.395 72.9492 165.531V165.555ZM88.4531 169.234C84.9961 169.234 82.8047 166.773 82.8047 162.895V162.883C82.8047 159.039 85.043 156.578 88.4297 156.578C91.4648 156.578 93.2578 158.594 93.5156 160.68L93.5273 160.773H91.5352L91.5117 160.68C91.207 159.461 90.2227 158.383 88.4297 158.383C86.3086 158.383 84.8906 160.141 84.8906 162.906V162.918C84.8906 165.754 86.3438 167.43 88.4531 167.43C90.1172 167.43 91.1836 166.492 91.5234 165.133L91.5469 165.039H93.5508L93.5391 165.121C93.2109 167.441 91.207 169.234 88.4531 169.234ZM95.5312 169V152.09H97.5703V158.758H97.6172C98.2734 157.387 99.5977 156.578 101.414 156.578C104.004 156.578 105.773 158.582 105.773 161.535V169H103.734V161.887C103.734 159.684 102.609 158.383 100.711 158.383C98.8242 158.383 97.5703 159.812 97.5703 161.887V169H95.5312ZM117.246 169.234C115.008 169.234 113.906 168.227 113.906 165.895V158.5H112.125V156.812H113.906V153.52H116.016V156.812H118.336V158.5H116.016V165.883C116.016 167.184 116.59 167.547 117.68 167.547C117.926 167.547 118.16 167.512 118.336 167.5V169.152C118.078 169.188 117.645 169.234 117.246 169.234ZM120.527 169V156.812H122.566V158.875H122.613C123.023 157.469 124.078 156.578 125.449 156.578C125.801 156.578 126.105 156.637 126.27 156.66V158.641C126.105 158.582 125.672 158.523 125.18 158.523C123.598 158.523 122.566 159.625 122.566 161.477V169H120.527ZM134.402 151.68L136.289 148.398H138.375L135.832 151.68H134.402ZM128.789 155.418L131.449 151.902H133.348L136.008 155.418H134.25L132.398 152.969L130.547 155.418H128.789ZM132.398 169.234C129.012 169.234 126.75 166.785 126.75 162.906V162.883C126.75 159.004 129.023 156.578 132.387 156.578C135.75 156.578 138.035 158.992 138.035 162.883V162.906C138.035 166.797 135.762 169.234 132.398 169.234ZM132.41 167.43C134.555 167.43 135.949 165.766 135.949 162.906V162.883C135.949 160.023 134.543 158.383 132.387 158.383C130.266 158.383 128.836 160.035 128.836 162.883V162.906C128.836 165.777 130.254 167.43 132.41 167.43ZM140.098 169V156.812H142.137V158.547H142.184C142.84 157.41 144.082 156.578 145.934 156.578C148.605 156.578 150.152 158.312 150.152 161.09V169H148.113V161.453C148.113 159.473 147.188 158.383 145.312 158.383C143.391 158.383 142.137 159.754 142.137 161.828V169H140.098ZM157.91 173.336C154.898 173.336 153 171.918 152.602 170.113L152.578 170.008H154.629L154.676 170.113C155.062 170.992 156.223 171.531 157.887 171.531C160.031 171.531 161.25 170.348 161.25 168.461V166.902H161.203C160.477 168.25 159.07 169.117 157.324 169.117C154.254 169.117 152.156 166.645 152.156 162.836V162.824C152.156 159.039 154.277 156.578 157.371 156.578C159.094 156.578 160.453 157.516 161.203 158.875H161.25V156.812H163.289V168.66C163.289 171.484 161.215 173.336 157.91 173.336ZM157.77 167.312C159.844 167.312 161.25 165.543 161.25 162.836V162.824C161.25 160.141 159.832 158.383 157.77 158.383C155.602 158.383 154.242 160.117 154.242 162.824V162.836C154.242 165.602 155.602 167.312 157.77 167.312Z" fill="#B3B9C6"/>
</svg>
