<svg width="64" height="86" viewBox="0 0 64 86" fill="none" xmlns="http://www.w3.org/2000/svg">
<path d="M56.2209 39.0119C56.2371 40.7453 55.8805 42.7727 55.3131 44.7692C55.151 45.3109 54.9727 45.4502 54.4539 45.0324C51.8278 43.0049 49.0557 41.1941 45.8946 40.0024C45.1975 39.7393 45.3434 39.2905 45.3434 38.8262C45.4083 32.6045 40.8044 27.4662 34.3686 26.6149C26.8954 25.6244 20.103 31.2735 20.1679 38.4702C20.1841 39.4452 19.9085 39.8786 18.9521 40.2655C16.0341 41.4417 13.4079 43.0823 11.0249 45.0788C10.5224 45.4967 10.3927 45.4812 10.182 44.8466C7.572 36.5046 10.5224 27.0638 17.5093 21.5231C22.2591 17.7622 27.7222 15.7812 33.8823 16.1991C43.5602 16.8646 50.4823 21.5076 54.4377 30.0044C55.8319 33.0223 56.2371 35.6689 56.2209 39.0119Z" fill="#F96619"/>
<path d="M31.6292 41.194C38.7134 41.1631 44.3547 42.8191 49.4774 46.1621C50.7418 46.9824 51.8928 47.911 52.9952 48.9015C53.3518 49.211 53.3518 49.4896 53.1248 49.8456C52.3305 51.1147 51.4227 52.2909 50.4825 53.4362C50.1096 53.9005 49.8016 53.6529 49.4936 53.3433C47.4997 51.3778 45.1653 49.861 42.5715 48.7158C37.7407 46.6109 32.7153 46.1311 27.544 47.2145C23.086 48.1586 19.2603 50.217 16.0343 53.2969C15.6128 53.6993 15.3372 53.7457 14.9319 53.2969C13.9593 52.198 13.1163 51.0063 12.322 49.7682C12.0788 49.3813 12.1923 49.1336 12.5165 48.8396C15.548 46.0692 19.0495 44.0727 22.9888 42.7417C26.0851 41.7512 29.23 41.1476 31.6292 41.194Z" fill="#24262D"/>
<path d="M32.764 50.4337C37.3841 50.5266 41.5503 51.7957 45.1329 54.6125C45.7327 55.0768 46.3001 55.603 46.8675 56.0982C47.1268 56.3304 47.1593 56.5471 46.8837 56.8102C45.8138 57.8162 44.7438 58.8376 43.7063 59.8746C43.3011 60.277 42.9769 60.277 42.5716 59.8746C40.0265 57.3673 36.8653 56.0673 33.2665 55.9589C29.6353 55.8506 26.3607 56.9185 23.621 59.2555C22.389 60.3079 22.389 60.3544 21.157 59.24C20.2816 58.4507 19.4548 57.5995 18.5956 56.7947C18.1904 56.4078 18.5308 56.2066 18.774 55.9744C20.4761 54.3803 22.389 53.0338 24.5775 52.0897C27.1712 50.9599 29.9433 50.4492 32.764 50.4337Z" fill="#24262D"/>
<path d="M40.3182 63.0163C40.2371 63.1092 40.1561 63.233 40.0426 63.3413C37.7731 65.4771 35.5036 67.5975 33.2502 69.7333C32.8126 70.1357 32.5045 69.9654 32.1641 69.6249C30.3809 67.907 28.5815 66.2045 26.7821 64.5021C26.3606 64.0997 25.9229 63.7282 25.4852 63.3413C25.1934 63.0627 25.1286 62.8306 25.4852 62.5056C27.8844 60.3543 30.6889 59.3947 33.9797 59.7507C36.2817 59.9983 38.2594 60.896 39.9291 62.4127C40.075 62.5675 40.302 62.7068 40.3182 63.0163Z" fill="#24262D"/>
</svg>
