<svg width="28" height="28" viewBox="0 0 28 28" fill="none" xmlns="http://www.w3.org/2000/svg">
<g clip-path="url(#clip0_8_159)">
<path d="M21 13.125C22.0189 13.1242 23.024 13.3611 23.9354 13.8168C24.8467 14.2725 25.6393 14.9344 26.25 15.75" stroke="#F96619" stroke-width="2" stroke-linecap="round" stroke-linejoin="round"/>
<path d="M1.75 15.75C2.36075 14.9344 3.15328 14.2725 4.06464 13.8168C4.976 13.3611 5.98107 13.1242 7 13.125" stroke="#F96619" stroke-width="2" stroke-linecap="round" stroke-linejoin="round"/>
<path d="M14 20.125C16.4162 20.125 18.375 18.1662 18.375 15.75C18.375 13.3338 16.4162 11.375 14 11.375C11.5838 11.375 9.625 13.3338 9.625 15.75C9.625 18.1662 11.5838 20.125 14 20.125Z" stroke="#F96619" stroke-width="2" stroke-linecap="round" stroke-linejoin="round"/>
<path d="M7.875 23.625C8.50313 22.5591 9.39855 21.6755 10.4728 21.0617C11.547 20.4479 12.7628 20.125 14 20.125C15.2372 20.125 16.453 20.4479 17.5272 21.0617C18.6014 21.6755 19.4969 22.5591 20.125 23.625" stroke="#F96619" stroke-width="2" stroke-linecap="round" stroke-linejoin="round"/>
<path d="M17.6094 8.75C17.773 8.11624 18.1111 7.54107 18.5852 7.0898C19.0593 6.63853 19.6505 6.32925 20.2915 6.19709C20.9326 6.06493 21.5979 6.11518 22.2118 6.34213C22.8257 6.56908 23.3637 6.96364 23.7647 7.481C24.1656 7.99836 24.4135 8.61779 24.4801 9.26894C24.5467 9.92008 24.4293 10.5769 24.1414 11.1647C23.8535 11.7525 23.4065 12.2478 22.8512 12.5943C22.2959 12.9408 21.6545 13.1247 21 13.125" stroke="#F96619" stroke-width="2" stroke-linecap="round" stroke-linejoin="round"/>
<path d="M6.99995 13.125C6.3454 13.1247 5.70407 12.9408 5.14878 12.5943C4.59348 12.2478 4.14649 11.7525 3.85855 11.1647C3.57062 10.5769 3.45328 9.92008 3.51987 9.26894C3.58646 8.61779 3.8343 7.99836 4.23526 7.481C4.63621 6.96364 5.17421 6.56908 5.78815 6.34213C6.40208 6.11518 7.06736 6.06493 7.70842 6.19709C8.34948 6.32925 8.94064 6.63853 9.41475 7.0898C9.88886 7.54107 10.2269 8.11624 10.3906 8.75" stroke="#F96619" stroke-width="2" stroke-linecap="round" stroke-linejoin="round"/>
</g>
<defs>
<clipPath id="clip0_8_159">
<rect width="28" height="28" fill="white"/>
</clipPath>
</defs>
</svg>
